<?xml version="1.0" standalone="no"?>
<svg viewBox="0 0 200 200" xmlns="http://www.w3.org/2000/svg">
  <path fill="#32D48E" d="M44.6,-68.7C54.6,-62.9,57.3,-45.2,63.5,-29.6C69.7,-14,79.5,-0.6,82.1,14.9C84.6,30.3,79.9,47.7,69.2,59.8C58.5,71.9,41.8,78.7,27.3,74.5C12.8,70.3,0.6,55.1,-13.9,49.8C-28.4,44.5,-45.1,49,-51.5,43.6C-57.9,38.1,-54,22.7,-56.8,7.8C-59.6,-7.2,-69.1,-21.5,-64.1,-28C-59.1,-34.5,-39.7,-33,-26.6,-37.3C-13.5,-41.7,-6.8,-51.7,5.3,-59.9C17.3,-68.1,34.6,-74.4,44.6,-68.7Z" transform="translate(100 100)" />
</svg>
